<?xml version="1.0" encoding="UTF-8" standalone="no"?>
<svg
   xmlns:dc="http://purl.org/dc/elements/1.1/"
   xmlns:cc="http://creativecommons.org/ns#"
   xmlns:rdf="http://www.w3.org/1999/02/22-rdf-syntax-ns#"
   xmlns:svg="http://www.w3.org/2000/svg"
   xmlns="http://www.w3.org/2000/svg"
   id="svg26"
   version="1.1"
   style="overflow:visible"
   viewBox="-240 -126 480 252"
   height="1008px"
   width="1920px">
  <metadata
     id="metadata32">
    <rdf:RDF>
      <cc:Work
         rdf:about="">
        <dc:format>image/svg+xml</dc:format>
        <dc:type
           rdf:resource="http://purl.org/dc/dcmitype/StillImage" />
      </cc:Work>
    </rdf:RDF>
  </metadata>
  <defs
     id="defs30" />
  <rect
     id="rect2"
     fill-opacity="0"
     fill="rgb(0,0,0)"
     height="252"
     width="480"
     y="-126"
     x="-240" />
  <svg
     id="svg24"
     version="1.1"
     y="-250"
     x="-250"
     viewBox="-250 -250 500 500"
     height="500"
     width="500"
     style="overflow:visible">
    <g
       style="fill:#ffffff;stroke-linejoin:round"
       id="g22">
      <path
         style="fill:#444444;fill-opacity:1;stroke:none;stroke-linecap:butt;stroke-linejoin:round"
         id="path4"
         d="m -49.599141,90.806149 c -4.477328,-0.122625 -10.647987,1.836524 -11.358135,8.884818 2.904186,-2.057023 10.67438,-2.340069 13.514225,0 l 10.056446,-4.695858 -10.418658,-4.01735 c -0.549676,-0.09371 -1.15419,-0.154107 -1.793813,-0.17162 z" />
      <path
         style="fill:#444444;fill-opacity:1;stroke:none;stroke-linecap:butt;stroke-linejoin:round"
         id="path6"
         d="m 79.871729,90.806149 c -4.47702,-0.122625 -10.64641,1.836524 -11.356558,8.884818 2.904186,-2.057023 10.67438,-2.340069 13.514225,0 L 98.411935,94.382054 81.665606,90.977759 c -0.549676,-0.09371 -1.154232,-0.154107 -1.793813,-0.17162 z" />
      <path
         style="fill:#987d78;fill-opacity:1;stroke:none;stroke-linecap:butt;stroke-linejoin:round"
         id="path8"
         d="m -100.41921,-101.14961 c -10.46862,-0.21333 -12.29164,9.298988 -10.4668,16.743091 -3.40656,0.34181 -6.31506,0.900981 -8.39578,1.818529 -9.25259,4.08018 -21.27282,15.356245 -23.08803,21.203595 -1.14891,3.701086 -1.51846,8.012471 -1.79853,11.522143 l 3.67582,43.509429 c 3.85804,0.474013 6.76781,-2.84163 11.21645,-2.859276 17.25595,-0.068475 21.92462,-7.843077 28.72298,-7.844098 12.800842,-0.0017 40.164614,13.307556 40.164614,13.307556 0,0 2.346443,20.434102 14.202461,33.240586 12.860019,13.891046 17.456062,49.343998 14.430795,53.376718 -3.025301,4.032687 -10.339061,0.928197 -16.049793,8.108626 3.798793,3.459098 2.915225,6.212035 0.362228,8.713173 5.468637,1.383738 10.597855,0.738388 15.71273,0 11.018084,1.300298 15.424719,1.225428 26.081919,0 0,0 6.687069,-7.532939 6.252348,-15.324456 C -1.04969,54.722888 13.634123,49.742473 9.955978,22.70431 33.83458,44.736493 55.335896,43.993478 91.620757,35.651314 c -6.321106,12.687047 8.347227,45.124527 1.368578,49.442104 -2.951065,1.825759 -7.412548,0.966393 -11.323524,5.88387 3.477193,3.080984 2.514742,5.928366 0.363805,8.713173 4.256613,1.139409 8.189352,0.918589 14.827618,0 10.752236,1.518589 16.609626,2.376239 26.496086,0 8.7951,-9.925556 0.67652,-16.514012 8.58951,-37.038252 8.46708,-21.961385 19.05132,-30.399165 20.02956,-59.81478 l 6.85711,4.033841 c 7.25831,-8.480857 7.55279,-27.829071 -9.98797,-37.535754 -5.69971,-21.296223 -19.37511,-35.853344 -44.35072,-43.895131 -33.312134,-10.726007 -76.60236,3.853515 -92.18229,-7.315073 -13.384581,-9.595049 -26.20227,-12.487516 -37.841692,-12.326662 -14.9649,0.206844 -27.981375,5.459988 -37.742424,8.001548 -6.828892,1.778084 -18.610177,1.440963 -29.902576,1.330448 3.45387,-7.57956 2.263268,-16.086566 -7.241378,-16.280196 z" />
      <path
         style="fill:#ccc4c4;fill-opacity:1;stroke:none;stroke-linecap:butt;stroke-linejoin:round"
         id="path10"
         d="m -144.16843,-49.86225 c -0.16241,2.035292 -0.30392,3.869941 -0.52601,4.980107 -0.46237,2.311259 -11.20957,14.020028 -16.24352,21.05876 l 6.15942,10.396331 c 0.38846,3.639384 2.93695,6.678021 10.08409,5.126536 1.56284,1.228715 2.93299,1.791745 4.20183,1.947644 5.71415,-11.991425 13.19493,-14.33327 11.7157,-23.231534 -1.25572,-7.553664 -8.45421,-9.145189 -15.39152,-20.277813 z" />
      <path
         style="fill:#444444;fill-opacity:1;stroke:none;stroke-linecap:butt;stroke-linejoin:round"
         id="path12"
         d="m -160.93791,-23.823491 c -1.55351,2.172193 -2.58198,3.915217 -2.57182,4.780144 0.0401,3.413325 8.73127,5.616203 8.73127,5.616203 3.50334,-6.278228 0.67354,-8.287243 -6.15942,-10.396331 z" />
      <path
         style="fill:#444444;fill-opacity:1;stroke:none;stroke-linecap:butt;stroke-linejoin:round"
         id="path14"
         d="m -100.68232,-95.16614 c -6.59785,-0.628476 -5.7687,7.894619 -4.31207,12.125137 l 5.524342,-0.19715 c 2.372106,-4.14888 3.981841,-11.43325 -1.212272,-11.928013 z" />
      <path
         style="fill:#444444;fill-opacity:1;stroke:none;stroke-linecap:butt;stroke-linejoin:round"
         id="path16"
         d="m -125.59627,-49.6506 a 4.149999,4.149991 0 0 1 -4.14999,4.149999 4.149999,4.149991 0 0 1 -4.15001,-4.15 4.149999,4.149991 0 0 1 4.15001,-4.15 4.149999,4.149991 0 0 1 4.14999,4.149999 z" />
      <path
         style="fill:none;stroke:#444444;stroke-width:5;stroke-linecap:round;stroke-linejoin:round;stroke-opacity:1"
         id="path18"
         d="M 9.955849,22.70465 C 9.454396,19.399316 9.040101,16.577938 8.398262,12.841594 l 4.156241,-2.694936 -2.490067,-7.158327 3.315642,-3.364057 C 12.492808,-11.213368 10.738337,-18.756242 7.295281,-29.10933" />
      <path
         style="fill:none;stroke:#444444;stroke-width:5;stroke-linecap:round;stroke-linejoin:round;stroke-opacity:1"
         id="path20"
         d="m -110.88634,-84.40602 c -3.40656,0.34181 -6.31506,0.900981 -8.39578,1.818529 -9.25259,4.08018 -21.27282,15.356245 -23.08803,21.203595 -1.81518,5.847399 -1.71949,13.477705 -2.32455,16.502226 -0.60506,3.02452 -18.85843,22.171291 -18.81535,25.838896 0.0401,3.413325 8.73127,5.616203 8.73127,5.616203 0.38845,3.639384 2.93694,6.678021 10.08408,5.126536 6.31483,4.964769 9.50657,-0.888192 15.41825,-0.911631 17.25595,-0.068475 21.92461,-7.843077 28.72298,-7.844098 12.800839,-0.0017 40.164611,13.307556 40.164611,13.307556 0,0 2.346443,20.434102 14.202461,33.240586 12.860019,13.891046 17.456062,49.343998 14.430795,53.376718 -3.025301,4.032687 -10.339061,0.928197 -16.049793,8.108626 -4.397382,-0.749607 -12.340357,0.658007 -13.152014,8.713173 2.904186,-2.057023 10.67438,-2.340069 13.514225,0 5.468637,1.383735 10.597855,0.738385 15.71273,0 11.018084,1.300295 15.424719,1.225425 26.081919,0 0,0 6.687069,-7.532939 6.252348,-15.324456 C -1.05008,54.723321 13.633733,49.742906 9.955588,22.704743 33.83419,44.736926 55.335506,43.993911 91.620367,35.651747 c -6.321106,12.687047 8.347227,45.124527 1.368578,49.442104 -2.951065,1.825759 -7.412548,0.966393 -11.323524,5.88387 -4.397382,-0.749607 -12.33878,0.658007 -13.150437,8.713173 2.904186,-2.057023 10.67438,-2.340069 13.514225,0 4.256613,1.139406 8.189352,0.918596 14.827618,0 10.752233,1.518596 16.609633,2.376236 26.496093,0 8.79509,-9.925556 0.67651,-16.514012 8.5895,-37.038252 8.46708,-21.961385 19.05132,-30.399165 20.02956,-59.81478 l 6.85711,4.033841 c 7.25831,-8.480857 7.5528,-27.829071 -9.98797,-37.535754 -5.69971,-21.296223 -19.3751,-35.853344 -44.35072,-43.895131 -33.312131,-10.726007 -76.602357,3.853515 -92.182287,-7.315073 -13.384581,-9.595049 -26.20227,-12.487516 -37.841692,-12.326662 -14.9649,0.206844 -27.981375,5.459988 -37.742424,8.001548 -6.828892,1.778084 -18.610177,1.440963 -29.902576,1.330448 3.45387,-7.57956 2.263268,-16.086559 -7.241381,-16.280199 -10.46862,-0.21333 -12.29163,9.298986 -10.46679,16.743089 z" />
    </g>
  </svg>
</svg>
